<?xml version="1.0" encoding="UTF-8" standalone="no"?>
<!-- Created with Inkscape (http://www.inkscape.org/) -->

<svg
   version="1.1"
   id="svg1"
   width="3000"
   height="3000"
   viewBox="0 0 3000 3000"
   sodipodi:docname="icon.svg"
   inkscape:version="1.4.2 (f4327f4, 2025-05-13)"
   xmlns:inkscape="http://www.inkscape.org/namespaces/inkscape"
   xmlns:sodipodi="http://sodipodi.sourceforge.net/DTD/sodipodi-0.dtd"
   xmlns:xlink="http://www.w3.org/1999/xlink"
   xmlns="http://www.w3.org/2000/svg"
   xmlns:svg="http://www.w3.org/2000/svg">
  <defs
     id="defs1">
    <inkscape:path-effect
       effect="fillet_chamfer"
       id="path-effect17"
       is_visible="true"
       lpeversion="1"
       nodesatellites_param="F,0,1,1,0,59.185618,0,1 @ F,0,1,1,0,59.185618,0,1 @ F,0,0,1,0,59.185618,0,1"
       radius="0"
       unit="px"
       method="auto"
       mode="F"
       chamfer_steps="1"
       flexible="false"
       use_knot_distance="true"
       apply_no_radius="true"
       apply_with_radius="true"
       only_selected="false"
       hide_knots="false" />
    <inkscape:path-effect
       effect="fillet_chamfer"
       id="path-effect14"
       is_visible="true"
       lpeversion="1"
       nodesatellites_param="F,0,1,1,0,45.582373,0,1 @ F,0,1,1,0,45.582373,0,1 @ F,0,0,1,0,45.582373,0,1"
       radius="0"
       unit="px"
       method="auto"
       mode="F"
       chamfer_steps="1"
       flexible="false"
       use_knot_distance="true"
       apply_no_radius="true"
       apply_with_radius="true"
       only_selected="false"
       hide_knots="false" />
    <inkscape:path-effect
       effect="bend_path"
       id="path-effect49"
       is_visible="true"
       lpeversion="1"
       bendpath="m 925,2746.9825 c 377.7496,-55.8374 761.5887,-50.7796 1150,0"
       prop_scale="1"
       scale_y_rel="false"
       vertical="false"
       hide_knot="false"
       bendpath-nodetypes="cc" />
    <pattern
       inkscape:collect="always"
       xlink:href="#Wave"
       preserveAspectRatio="none"
       id="pattern42"
       patternTransform="matrix(0,10,-30,0,0,0)"
       x="0"
       y="0" />
    <pattern
       patternUnits="userSpaceOnUse"
       width="24"
       height="10"
       preserveAspectRatio="xMidYMid"
       id="Wave"
       style="fill:#7d95b2"
       x="0"
       y="0"
       inkscape:collect="always"
       inkscape:isstock="true"
       inkscape:label="Wave">
      <g
         id="wave_g"
         style="display:inline">
        <path
           d="M 12,-2 C 9.1666695,-2 7.1679672,-0.56445187 5.4179687,0.68554687 3.6679703,1.9355456 2.1666645,3 0,3 V 5 C 2.8333305,5 4.8320328,3.5644519 6.5820312,2.3144531 8.3320297,1.0644544 9.8333355,0 12,0 14.166665,0 15.667971,1.0644544 17.417969,2.3144531 19.167967,3.5644519 21.166669,5 24,5 V 3 C 21.833335,3 20.332029,1.9355456 18.582031,0.68554687 16.832033,-0.56445189 14.833331,-2 12,-2 Z"
           id="path3" />
        <path
           d="M 12,3 C 9.1666695,3 7.1679672,4.4355481 5.4179687,5.6855469 3.6679703,6.9355456 2.1666645,8 0,8 v 2 C 2.8333305,10 4.8320328,8.5644519 6.5820312,7.3144531 8.3320297,6.0644544 9.8333355,5 12,5 14.166665,5 15.667971,6.0644544 17.417969,7.3144531 19.167967,8.5644519 21.166669,10 24,10 V 8 C 21.833335,8 20.332029,6.9355456 18.582031,5.6855469 16.832033,4.4355481 14.833331,3 12,3 Z"
           id="path41" />
        <path
           d="M 12,8 C 9.1666695,8 7.1679672,9.4355481 5.4179687,10.685547 3.6679703,11.935546 2.1666645,13 0,13 v 2 C 2.8333305,15 4.8320328,13.564452 6.5820312,12.314453 8.3320297,11.064454 9.8333355,10 12,10 c 2.166665,0 3.667971,1.064454 5.417969,2.314453 C 19.167967,13.564452 21.166669,15 24,15 V 13 C 21.833335,13 20.332029,11.935546 18.582031,10.685547 16.832033,9.4355481 14.833331,8 12,8 Z"
           id="path42" />
      </g>
    </pattern>
    <clipPath
       clipPathUnits="userSpaceOnUse"
       id="clipPath25">
      <rect
         style="fill:#ff0000;stroke:none;stroke-width:3;stroke-linecap:square;stroke-linejoin:miter;paint-order:stroke markers fill;stop-color:#000000"
         id="rect25-8"
         width="78"
         height="45.033199"
         x="763.61322"
         y="452.82422" />
    </clipPath>
    <inkscape:path-effect
       effect="fillet_chamfer"
       id="path-effect12"
       is_visible="true"
       lpeversion="1"
       nodesatellites_param="F,0,0,1,0,92.26726,0,1 @ F,0,0,1,0,105.50916,0,1 @ F,0,0,1,0,0,0,1"
       radius="0"
       unit="px"
       method="auto"
       mode="F"
       chamfer_steps="1"
       flexible="false"
       use_knot_distance="true"
       apply_no_radius="true"
       apply_with_radius="true"
       only_selected="false"
       hide_knots="false" />
    <inkscape:path-effect
       effect="fillet_chamfer"
       id="path-effect4"
       is_visible="true"
       lpeversion="1"
       nodesatellites_param="F,0,0,1,0,0,0,1 @ F,0,0,1,0,0,0,1 @ F,0,0,1,0,0,0,1 | F,0,0,1,0,0,0,1 @ F,0,0,1,0,0,0,1 @ F,0,0,1,0,0,0,1"
       radius="0"
       unit="px"
       method="auto"
       mode="F"
       chamfer_steps="1"
       flexible="false"
       use_knot_distance="true"
       apply_no_radius="true"
       apply_with_radius="true"
       only_selected="false"
       hide_knots="false" />
    <inkscape:path-effect
       effect="fillet_chamfer"
       id="path-effect3"
       is_visible="true"
       lpeversion="1"
       nodesatellites_param="F,0,0,1,0,0,0,1 @ F,0,0,1,0,0,0,1 @ F,0,0,1,0,0,0,1 | F,0,0,1,0,0,0,1 @ F,0,0,1,0,0,0,1 @ F,0,0,1,0,0,0,1"
       radius="0"
       unit="px"
       method="auto"
       mode="F"
       chamfer_steps="1"
       flexible="false"
       use_knot_distance="true"
       apply_no_radius="true"
       apply_with_radius="true"
       only_selected="false"
       hide_knots="false" />
    <inkscape:path-effect
       effect="spiro"
       id="path-effect29"
       is_visible="true"
       lpeversion="1" />
    <inkscape:path-effect
       effect="spiro"
       id="path-effect27"
       is_visible="true"
       lpeversion="1" />
    <inkscape:path-effect
       effect="spiro"
       id="path-effect25"
       is_visible="true"
       lpeversion="1" />
    <inkscape:path-effect
       effect="fillet_chamfer"
       id="path-effect23"
       is_visible="true"
       lpeversion="1"
       nodesatellites_param="F,0,0,1,0,0,0,1 @ F,0,0,1,0,0,0,1 @ F,0,0,1,0,0,0,1 @ F,0,0,1,0,0,0,1"
       radius="0"
       unit="px"
       method="auto"
       mode="F"
       chamfer_steps="1"
       flexible="false"
       use_knot_distance="true"
       apply_no_radius="true"
       apply_with_radius="true"
       only_selected="false"
       hide_knots="false" />
    <inkscape:path-effect
       effect="fillet_chamfer"
       id="path-effect21"
       is_visible="true"
       lpeversion="1"
       nodesatellites_param="F,0,0,1,0,0,0,1 @ F,0,0,1,0,0,0,1 @ F,0,0,1,0,0,0,1 @ F,0,0,1,0,0,0,1"
       radius="0"
       unit="px"
       method="auto"
       mode="F"
       chamfer_steps="1"
       flexible="false"
       use_knot_distance="true"
       apply_no_radius="true"
       apply_with_radius="true"
       only_selected="false"
       hide_knots="false" />
    <inkscape:path-effect
       effect="fillet_chamfer"
       id="path-effect19"
       is_visible="true"
       lpeversion="1"
       nodesatellites_param="F,0,0,1,0,0,0,1 @ F,0,0,1,0,0,0,1 @ F,0,0,1,0,0,0,1 @ F,0,0,1,0,0,0,1"
       radius="0"
       unit="px"
       method="auto"
       mode="F"
       chamfer_steps="1"
       flexible="false"
       use_knot_distance="true"
       apply_no_radius="true"
       apply_with_radius="true"
       only_selected="false"
       hide_knots="false" />
    <inkscape:path-effect
       effect="fillet_chamfer"
       id="path-effect16"
       is_visible="true"
       lpeversion="1"
       nodesatellites_param="F,0,0,1,0,0,0,1 @ F,0,0,1,0,0,0,1 @ F,0,0,1,0,0,0,1 @ F,0,0,1,0,0,0,1"
       radius="0"
       unit="px"
       method="auto"
       mode="F"
       chamfer_steps="1"
       flexible="false"
       use_knot_distance="true"
       apply_no_radius="true"
       apply_with_radius="true"
       only_selected="false"
       hide_knots="false" />
    <inkscape:path-effect
       effect="fillet_chamfer"
       id="path-effect13"
       is_visible="true"
       lpeversion="1"
       nodesatellites_param="F,0,0,1,0,0,0,1 @ F,0,0,1,0,0,0,1 @ F,0,0,1,0,0,0,1 @ F,0,0,1,0,0,0,1"
       radius="0"
       unit="px"
       method="auto"
       mode="F"
       chamfer_steps="1"
       flexible="false"
       use_knot_distance="true"
       apply_no_radius="true"
       apply_with_radius="true"
       only_selected="false"
       hide_knots="false" />
    <inkscape:path-effect
       effect="fillet_chamfer"
       id="path-effect11"
       is_visible="true"
       lpeversion="1"
       nodesatellites_param="F,0,0,1,0,0,0,1 @ F,0,0,1,0,0,0,1 @ F,0,0,1,0,0,0,1 @ F,0,0,1,0,0,0,1"
       radius="0"
       unit="px"
       method="auto"
       mode="F"
       chamfer_steps="1"
       flexible="false"
       use_knot_distance="true"
       apply_no_radius="true"
       apply_with_radius="true"
       only_selected="false"
       hide_knots="false" />
    <inkscape:path-effect
       effect="fillet_chamfer"
       id="path-effect10"
       is_visible="true"
       lpeversion="1"
       nodesatellites_param="F,0,0,1,0,0,0,1 @ F,0,0,1,0,0,0,1 @ F,0,0,1,0,0,0,1 @ F,0,0,1,0,0,0,1"
       radius="0"
       unit="px"
       method="auto"
       mode="F"
       chamfer_steps="1"
       flexible="false"
       use_knot_distance="true"
       apply_no_radius="true"
       apply_with_radius="true"
       only_selected="false"
       hide_knots="false" />
    <inkscape:path-effect
       effect="fillet_chamfer"
       id="path-effect8"
       is_visible="true"
       lpeversion="1"
       nodesatellites_param="F,0,0,1,0,0,0,1 @ F,0,0,1,0,0,0,1 @ F,0,0,1,0,77.147243,0,1"
       radius="0"
       unit="px"
       method="auto"
       mode="F"
       chamfer_steps="1"
       flexible="false"
       use_knot_distance="true"
       apply_no_radius="true"
       apply_with_radius="true"
       only_selected="false"
       hide_knots="false" />
    <inkscape:path-effect
       effect="fillet_chamfer"
       id="path-effect15"
       is_visible="true"
       lpeversion="1"
       nodesatellites_param="F,0,1,1,0,70.175474,0,1 @ F,0,0,1,0,70.175474,0,1 @ F,0,1,1,0,70.175474,0,1"
       radius="0"
       unit="px"
       method="auto"
       mode="F"
       chamfer_steps="1"
       flexible="false"
       use_knot_distance="true"
       apply_no_radius="true"
       apply_with_radius="true"
       only_selected="false"
       hide_knots="false" />
    <inkscape:path-effect
       effect="fillet_chamfer"
       id="path-effect9"
       is_visible="true"
       lpeversion="1"
       nodesatellites_param="F,0,1,1,0,70.175474,0,1 @ F,0,0,1,0,70.175474,0,1 @ F,0,1,1,0,70.175474,0,1"
       radius="0"
       unit="px"
       method="auto"
       mode="F"
       chamfer_steps="1"
       flexible="false"
       use_knot_distance="true"
       apply_no_radius="true"
       apply_with_radius="true"
       only_selected="false"
       hide_knots="false" />
    <inkscape:path-effect
       effect="fillet_chamfer"
       id="path-effect7"
       is_visible="true"
       lpeversion="1"
       nodesatellites_param="F,0,1,1,0,70.175474,0,1 @ F,0,0,1,0,70.175474,0,1 @ F,0,1,1,0,70.175474,0,1"
       radius="0"
       unit="px"
       method="auto"
       mode="F"
       chamfer_steps="1"
       flexible="false"
       use_knot_distance="true"
       apply_no_radius="true"
       apply_with_radius="true"
       only_selected="false"
       hide_knots="false" />
    <inkscape:path-effect
       effect="fillet_chamfer"
       id="path-effect2"
       is_visible="true"
       lpeversion="1"
       nodesatellites_param="F,0,0,1,0,0,0,1 @ F,0,0,1,0,0,0,1 @ F,0,0,1,0,0,0,1 @ F,0,0,1,0,0,0,1 @ F,0,0,1,0,0,0,1 @ F,0,0,1,0,0,0,1 @ F,0,0,1,0,0,0,1 @ F,0,0,1,0,0,0,1"
       radius="0"
       unit="px"
       method="auto"
       mode="F"
       chamfer_steps="1"
       flexible="false"
       use_knot_distance="true"
       apply_no_radius="true"
       apply_with_radius="true"
       only_selected="false"
       hide_knots="false" />
    <inkscape:path-effect
       effect="fillet_chamfer"
       id="path-effect1"
       is_visible="true"
       lpeversion="1"
       nodesatellites_param="F,0,0,1,0,0,0,1 @ F,0,0,1,0,0,0,1 @ F,0,0,1,0,0,0,1 @ F,0,0,1,0,0,0,1"
       radius="0"
       unit="px"
       method="auto"
       mode="F"
       chamfer_steps="1"
       flexible="false"
       use_knot_distance="true"
       apply_no_radius="true"
       apply_with_radius="true"
       only_selected="false"
       hide_knots="false" />
    <inkscape:path-effect
       effect="fillet_chamfer"
       id="path-effect5"
       is_visible="true"
       lpeversion="1"
       nodesatellites_param="F,0,1,1,0,70.175474,0,1 @ F,0,0,1,0,70.175474,0,1 @ F,0,1,1,0,70.175474,0,1"
       radius="0"
       unit="px"
       method="auto"
       mode="F"
       chamfer_steps="1"
       flexible="false"
       use_knot_distance="true"
       apply_no_radius="true"
       apply_with_radius="true"
       only_selected="false"
       hide_knots="false" />
  </defs>
  <sodipodi:namedview
     id="namedview1"
     pagecolor="#ffffff"
     bordercolor="#000000"
     borderopacity="0.25"
     inkscape:showpageshadow="2"
     inkscape:pageopacity="0.0"
     inkscape:pagecheckerboard="0"
     inkscape:deskcolor="#d1d1d1"
     inkscape:zoom="0.088388348"
     inkscape:cx="1787.5659"
     inkscape:cy="1023.8906"
     inkscape:window-width="1832"
     inkscape:window-height="1057"
     inkscape:window-x="80"
     inkscape:window-y="-8"
     inkscape:window-maximized="1"
     inkscape:current-layer="g3" />
  <g
     inkscape:groupmode="layer"
     inkscape:label="Image"
     id="g1"
     transform="matrix(1.5357745,0,0,1.5357745,-803.66175,-1869.7423)">
    <g
       id="g3"
       transform="translate(0,93.763763)">
      <rect
         style="fill:#f9f9f9;stroke-width:2.46099;stroke-linecap:round"
         id="rect7"
         width="2833.7493"
         height="2453.4851"
         x="153.44815"
         y="1024.7223"
         ry="49.486431"
         transform="translate(0,-93.763763)" />
      <path
         id="path26"
         style="fill:none;stroke:#666666;stroke-width:95.539;stroke-linecap:round;stroke-dasharray:none;stroke-opacity:1"
         d="m 2384.6713,3465.0652 c 24.4304,-4.8275 50.5252,-0.7233 72.2943,11.3704 21.769,12.0937 39.04,32.0812 47.8482,55.3742 3.841,10.1576 6.0595,20.9088 6.6502,31.7506"
         transform="matrix(1.0981411,0,0,0.99765574,-509.21154,-6.3269331)" />
      <path
         id="path23"
         d="m 1160.7846,2326.1187 h 678.4309 c 71.0563,0 110.2516,84.057 128.2605,181.123 l 171.8717,926.3716 c 24.63,132.7532 -78.2358,247.7146 -175.4166,247.7146 H 1036.069 c -97.18086,0 -200.04666,-114.9614 -175.41676,-247.7146 L 1032.524,2507.2417 c 18.0089,-97.066 57.2042,-181.123 128.2606,-181.123 z"
         style="fill:#808080;stroke:none;stroke-width:16.4342;stroke-dasharray:none"
         sodipodi:nodetypes="sssssssss" />
      <path
         id="rect1"
         d="m 1151.0883,1419.6829 h 697.8236 c 73.0874,0 113.4031,65.5309 131.9268,141.2035 l 176.7846,722.1987 c 25.334,103.4943 -80.4722,193.1181 -180.4308,193.1181 h -954.3848 c -99.95879,0 -205.76502,-89.6238 -180.431,-193.1181 l 176.7847,-722.1987 c 18.5237,-75.6726 58.8394,-141.2035 131.9269,-141.2035 z"
         style="fill:#808080;stroke:none;stroke-width:14.7165;stroke-dasharray:none"
         sodipodi:nodetypes="sssssssss" />
      <g
         id="g11"
         transform="matrix(1.2950981,0,0,1.1143451,-472.13715,-200.53946)">
        <path
           id="rect2"
           style="fill:#e6e6e6;stroke-width:14.725"
           d="m 1621.3161,1972.5138 60.8775,-0.8676 c 35.8772,-0.5113 92.5639,34.7861 106.9123,90.0533 l 17.8456,68.7372 c 14.3485,55.2672 -25.1518,115.2178 -82.2447,116.0818 l -114.6697,1.7352 c -57.0928,0.864 -113.4508,-73.4929 -100.4646,-129.096 l 13.0142,-55.723 c 12.9862,-55.6031 41.6358,-90.1072 98.7294,-90.9209 z"
           sodipodi:nodetypes="sssssssss" />
        <path
           id="rect4"
           style="fill:#e6e6e6;stroke-width:14.725"
           d="m 1336.8723,2118.776 c 23.0954,-13.8537 46.1907,-17.2032 69.286,-17.2651 50.9413,-0.1366 70.313,65.8538 70.313,94.6933 0,28.8396 -23.2174,52.057 -52.057,52.057 h -63.3359 c -28.8395,0 -62.9218,-8.0014 -64.2035,-52.9246 -1.1351,-39.7855 15.2662,-61.7255 39.9974,-76.5606 z"
           sodipodi:nodetypes="sssssss" />
      </g>
      <g
         id="g12"
         transform="translate(-63.195009,1983.0353)">
        <rect
           style="display:none;fill:#808080;stroke:#808080;stroke-width:99.9997;stroke-linecap:round"
           id="rect6"
           width="636.81238"
           height="234.03261"
           x="1244.7888"
           y="-314.98941"
           rx="297.56982"
           ry="4.6729512"
           transform="translate(2.180965e-6,-3.0173603e-5)" />
        <g
           id="g10"
           transform="translate(5.0049529,-15.627294)">
          <g
             id="g5"
             transform="translate(-477.96282,-1920.5302)">
            <rect
               style="fill:#ffffff;fill-opacity:1;stroke:#808080;stroke-width:14.725;stroke-dasharray:none;stroke-opacity:1"
               id="rect3"
               width="223.84485"
               height="291.51886"
               x="1684.6119"
               y="1610.8452"
               ry="95.437668" />
            <rect
               style="fill:#1c2224;fill-opacity:1;stroke:none;stroke-width:11.9229;stroke-dasharray:none;stroke-opacity:1"
               id="rect5"
               width="150"
               height="200"
               x="1713.0798"
               y="1677.9579"
               ry="77.276306" />
            <circle
               style="fill:#ffffff;stroke-width:7.38297;stroke-linecap:round"
               id="path7"
               cx="1380.2253"
               cy="-214.06316"
               r="39.068233"
               transform="translate(470.14917,1933.505)" />
          </g>
          <g
             id="g9"
             transform="translate(1.2742066,-1920.5302)">
            <rect
               style="fill:#ffffff;fill-opacity:1;stroke:#808080;stroke-width:14.725;stroke-dasharray:none;stroke-opacity:1"
               id="rect8"
               width="223.84485"
               height="291.51886"
               x="1684.6119"
               y="1610.8452"
               ry="95.437668" />
            <rect
               style="fill:#1c2224;fill-opacity:1;stroke:none;stroke-width:11.9229;stroke-dasharray:none;stroke-opacity:1"
               id="rect9"
               width="150"
               height="200"
               x="1713.0798"
               y="1677.9579"
               ry="77.276306" />
            <circle
               style="fill:#ffffff;stroke-width:7.38297;stroke-linecap:round"
               id="circle9"
               cx="1380.2253"
               cy="-214.06316"
               r="39.068233"
               transform="translate(470.14917,1933.505)" />
          </g>
        </g>
      </g>
      <path
         id="path5"
         style="fill:#ffa8a8;fill-opacity:1;stroke:none;stroke-width:14.704"
         d="m 1506.6035,1524.2039 -34.3239,-59.4508 a 34.170832,34.170832 120 0 1 29.5928,-51.2562 h 68.6478 a 34.170832,34.170832 60 0 1 29.5928,51.2562 l -34.3239,59.4508 a 34.170834,34.170834 180 0 1 -59.1856,0 z"
         transform="matrix(1.7164562,0,0,1.7164562,-1136.8137,-523.73913)"
         inkscape:path-effect="#path-effect17"
         inkscape:original-d="m 1536.1963,1575.4601 -93.5095,-161.9632 h 187.019 z" />
      <g
         id="g30"
         transform="translate(-12.307428,-41.645553)">
        <path
           id="path6"
           style="fill:#999999;fill-opacity:1;stroke:#808080;stroke-width:14.704;stroke-opacity:1"
           d="m 1501.1086,1514.6864 -23.3341,-40.4158 a 40.515828,40.515828 120 0 1 35.0878,-60.7737 h 46.668 a 40.515828,40.515828 60 0 1 35.0878,60.7737 l -23.3341,40.4158 a 40.51583,40.51583 180 0 1 -70.1754,0 z"
           inkscape:original-d="m 1536.1963,1575.4601 -93.5095,-161.9632 h 187.019 z"
           inkscape:path-effect="#path-effect7"
           transform="matrix(1.1629886,2.0375639,-2.0375639,1.1629886,2484.0721,-3384.533)" />
        <path
           id="path14"
           style="fill:#999999;fill-opacity:1;stroke:#808080;stroke-width:14.704;stroke-opacity:1"
           d="m 1501.1086,1514.6864 -23.3341,-40.4158 a 40.515828,40.515828 120 0 1 35.0878,-60.7737 h 46.668 a 40.515828,40.515828 60 0 1 35.0878,60.7737 l -23.3341,40.4158 a 40.51583,40.51583 180 0 1 -70.1754,0 z"
           inkscape:original-d="m 1536.1963,1575.4601 -93.5095,-161.9632 h 187.019 z"
           inkscape:path-effect="#path-effect15"
           transform="matrix(1.1629886,2.0375639,-2.0375639,1.1629886,2947.8758,-3384.533)" />
      </g>
      <g
         id="g23"
         transform="translate(0.04451016,-70.284652)">
        <g
           id="g16"
           transform="matrix(0.76064754,0,0,1,246.70456,0)">
          <path
             id="path8"
             style="fill:#b7c4c8;stroke-width:14.725"
             inkscape:transform-center-x="-84.033551"
             inkscape:transform-center-y="11.416297"
             transform="matrix(-0.02704329,0.13680842,-1.5781929,-0.45510559,3640.6272,2714.0225)"
             d="m 920.24539,1926.3804 -376.94508,1.6784 148.74323,-260.3006 c 17.01145,-29.77 59.8706,-29.9609 77.14648,-0.3435 z"
             inkscape:original-d="m 920.24539,1926.3804 -376.94508,1.6784 148.74323,-260.3006 a 44.540984,44.540984 179.74488 0 1 77.14648,-0.3435 z"
             inkscape:path-effect="#path-effect11" />
          <path
             id="path11"
             style="fill:#b7c4c8;stroke-width:14.725"
             inkscape:transform-center-x="-88.058154"
             inkscape:transform-center-y="-3.2226041"
             transform="matrix(-0.00178163,0.14063732,-1.6294744,-0.02985188,3709.4268,2038.9023)"
             d="m 920.24539,1926.3804 -376.94508,1.6784 148.74323,-260.3006 c 17.01145,-29.77 59.8706,-29.9609 77.14648,-0.3435 z"
             inkscape:path-effect="#path-effect13"
             inkscape:original-d="m 920.24539,1926.3804 -376.94508,1.6784 148.74323,-260.3006 a 44.540984,44.540984 179.74488 0 1 77.14648,-0.3435 z" />
          <path
             id="path13"
             style="fill:#b7c4c8;stroke-width:14.725"
             inkscape:transform-center-x="-85.851299"
             inkscape:transform-center-y="-3.221632"
             transform="matrix(0.01629931,0.13929461,-1.6218124,0.27177081,3687.1961,1577.9699)"
             d="m 920.24539,1926.3804 -376.94508,1.6784 148.74323,-260.3006 c 17.01145,-29.77 59.8706,-29.9609 77.14648,-0.3435 z"
             inkscape:path-effect="#path-effect16"
             inkscape:original-d="m 920.24539,1926.3804 -376.94508,1.6784 148.74323,-260.3006 a 44.540984,44.540984 179.74488 0 1 77.14648,-0.3435 z" />
        </g>
        <g
           id="g18"
           transform="matrix(-0.72589731,0,0,1,2733.5122,0)">
          <path
             id="path16"
             style="fill:#b7c4c8;stroke-width:14.725"
             inkscape:transform-center-x="-84.033551"
             inkscape:transform-center-y="11.416297"
             transform="matrix(-0.02704329,0.13680842,-1.5781929,-0.45510559,3640.6272,2714.0225)"
             d="m 920.24539,1926.3804 -376.94508,1.6784 148.74323,-260.3006 c 17.01145,-29.77 59.8706,-29.9609 77.14648,-0.3435 z"
             inkscape:original-d="m 920.24539,1926.3804 -376.94508,1.6784 148.74323,-260.3006 a 44.540984,44.540984 179.74488 0 1 77.14648,-0.3435 z"
             inkscape:path-effect="#path-effect19" />
          <path
             id="path17"
             style="fill:#b7c4c8;stroke-width:14.725"
             inkscape:transform-center-x="-88.058154"
             inkscape:transform-center-y="-3.2226041"
             transform="matrix(-0.00178163,0.14063732,-1.6294744,-0.02985188,3709.4268,2038.9023)"
             d="m 920.24539,1926.3804 -376.94508,1.6784 148.74323,-260.3006 c 17.01145,-29.77 59.8706,-29.9609 77.14648,-0.3435 z"
             inkscape:path-effect="#path-effect21"
             inkscape:original-d="m 920.24539,1926.3804 -376.94508,1.6784 148.74323,-260.3006 a 44.540984,44.540984 179.74488 0 1 77.14648,-0.3435 z" />
          <path
             id="path18"
             style="fill:#b7c4c8;stroke-width:14.725"
             inkscape:transform-center-x="-85.851299"
             inkscape:transform-center-y="-3.221632"
             transform="matrix(0.01629931,0.13929461,-1.6218124,0.27177081,3687.1961,1577.9699)"
             d="m 920.24539,1926.3804 -376.94508,1.6784 148.74323,-260.3006 c 17.01145,-29.77 59.8706,-29.9609 77.14648,-0.3435 z"
             inkscape:path-effect="#path-effect23"
             inkscape:original-d="m 920.24539,1926.3804 -376.94508,1.6784 148.74323,-260.3006 a 44.540984,44.540984 179.74488 0 1 77.14648,-0.3435 z" />
        </g>
      </g>
      <path
         id="path24"
         d="m 1241.0953,2749.5152 375.0629,-112.8834 c 126.5151,-38.0776 226.8957,170.6791 240.6408,237.4196 l 131.1804,636.9533 c 18.7988,91.2782 -59.7131,170.3232 -133.886,170.3232 h -708.1867 c -74.1729,0 -152.68481,-79.045 -133.8861,-170.3232 l 131.1804,-636.9533 c 13.7452,-66.7405 45.1177,-108.6519 97.8943,-124.5362 z"
         style="fill:#ececec;stroke:none;stroke-width:11.9054;stroke-dasharray:none"
         sodipodi:nodetypes="sssssssss" />
      <g
         id="g49"
         transform="translate(-4.6643524)">
        <path
           id="rect48"
           style="fill:#808080;stroke-width:100;stroke-linecap:round"
           d="m 1189.6364,3490.2791 h 132.3705 c 35.413,0 63.9224,28.5093 63.9224,63.9223 v 115.4 c 0,35.413 -28.5094,63.9224 -63.9224,63.9224 h -132.3705 c -35.413,0 -63.9224,-28.5094 -63.9224,-63.9224 v -115.4 c 0,-35.413 28.5094,-63.9223 63.9224,-63.9223 z" />
        <path
           id="rect49"
           style="fill:#808080;stroke-width:100;stroke-linecap:round"
           d="m 1687.3218,3490.2791 h 132.3706 c 35.4129,0 63.9223,28.5093 63.9223,63.9223 v 115.4 c 0,35.413 -28.5094,63.9224 -63.9223,63.9224 h -132.3706 c -35.413,0 -63.9224,-28.5094 -63.9224,-63.9224 v -115.4 c 0,-35.413 28.5094,-63.9223 63.9224,-63.9223 z" />
      </g>
      <path
         id="path25"
         style="fill:none;stroke:#666666;stroke-width:95.539;stroke-linecap:round;stroke-dasharray:none;stroke-opacity:1"
         d="m 2511.464,3563.5604 c 0.7638,14.0203 -1.1945,28.1922 -5.8864,41.4284 -8.3201,23.4718 -25.17,43.8154 -46.6819,56.3609 -20.3127,11.8461 -44.2625,16.6724 -67.7684,16.0323 -23.5059,-0.6401 -46.6361,-6.545 -68.5872,-14.9762 -43.9022,-16.8625 -83.3471,-43.6595 -126.6891,-61.9138 -95.2834,-40.1304 -208.3253,-35.5503 -300.0498,12.1571"
         transform="matrix(1.0981411,0,0,0.99765574,-509.21154,-6.3269331)" />
      <path
         id="path4"
         style="fill:#666666;stroke-width:118.348;stroke-linecap:round"
         inkscape:transform-center-x="49.253848"
         inkscape:transform-center-y="-21.352848"
         d="m 1282.768,3720.3819 -4.0528,-213.7988 a 55.269795,55.269795 151.26673 0 1 85.8613,-47.0725 l 208.0692,138.3426 -214.1532,159.6357 a 47.40275,47.40275 26.106075 0 1 -75.7245,-37.107 z"
         sodipodi:nodetypes="cccc"
         inkscape:path-effect="#path-effect12"
         inkscape:original-d="m 1284.5167,3812.6326 -7.8012,-411.5397 295.9302,196.7603 z"
         transform="matrix(1.1050891,0,0,1.1050891,-114.06571,-358.88936)" />
      <g
         id="g48"
         inkscape:path-effect="#path-effect49"
         transform="translate(0,24)">
        <g
           id="g44">
          <path
             style="mix-blend-mode:normal;fill:#cccccc;fill-opacity:1;stroke:none;stroke-width:112.405;stroke-linecap:round;stroke-opacity:1"
             id="rect42"
             width="1150"
             height="321.30664"
             x="925"
             y="2459.0251"
             ry="98.159508"
             sodipodi:type="rect"
             d="m 986.55894,2434.3962 c 170.05636,-20.3933 340.63576,-29.73 510.43776,-29.1053 172.4691,0.6439 343.8584,11.1591 513.3847,29.9655 57.5412,6.3834 97.9509,55.9562 90.9024,109.8778 l -16.2002,123.9333 c -7.0484,53.9217 -56.0977,91.5523 -110.1102,85.5644 -159.1298,-17.6414 -319.0696,-27.5135 -479.0362,-28.0361 -157.4325,-0.5149 -314.9009,8.0513 -471.1048,26.7936 -53.87139,6.4638 -103.46872,-30.3165 -111.42212,-84.1121 l -18.28007,-123.6437 c -7.9534,-53.7956 32.77995,-104.2042 91.42873,-111.2374 z" />
          <path
             style="mix-blend-mode:normal;fill:url(#pattern42);fill-opacity:1;stroke:none;stroke-width:112.405;stroke-linecap:round;stroke-opacity:1"
             id="rect12"
             width="1150"
             height="321.30664"
             x="925"
             y="2459.0251"
             ry="98.159508"
             sodipodi:type="rect"
             d="m 986.55894,2434.3962 c 170.05636,-20.3933 340.63576,-29.73 510.43776,-29.1053 172.4691,0.6439 343.8584,11.1591 513.3847,29.9655 57.5412,6.3834 97.9509,55.9562 90.9024,109.8778 l -16.2002,123.9333 c -7.0484,53.9217 -56.0977,91.5523 -110.1102,85.5644 -159.1298,-17.6414 -319.0696,-27.5135 -479.0362,-28.0361 -157.4325,-0.5149 -314.9009,8.0513 -471.1048,26.7936 -53.87139,6.4638 -103.46872,-30.3165 -111.42212,-84.1121 l -18.28007,-123.6437 c -7.9534,-53.7956 32.77995,-104.2042 91.42873,-111.2374 z" />
        </g>
        <g
           id="g2"
           transform="matrix(0.65035989,-0.03180791,0.03180791,0.65035989,451.26767,1263.8987)">
          <g
             id="g47"
             transform="matrix(-0.24946502,1.515378,-1.515378,-0.24946502,5753.3213,1052.4746)">
            <path
               style="mix-blend-mode:normal;fill:#cccccc;fill-opacity:1;stroke:none;stroke-width:91.7783;stroke-linecap:round;stroke-opacity:1"
               id="rect46"
               width="689.99902"
               height="321.30664"
               x="925"
               y="2459.0251"
               ry="98.159508"
               sodipodi:type="rect"
               d="m 972.73244,2453.1775 c 164.47676,8.3271 328.92906,14.5582 493.31916,18.6298 54.3242,1.3455 96.4314,42.7333 95.7672,93.15 -0.023,1.7411 -0.045,3.4823 -0.065,5.2235 -0.4388,36.8701 -0.3524,73.7711 0.2816,110.6856 0.8666,50.4574 -40.973,93.7101 -95.2458,96.6081 -164.2345,8.7699 -328.7302,15.177 -493.42652,19.2651 -54.4254,1.3509 -100.40319,-46.044 -101.37357,-105.6565 -0.23881,-14.6705 -0.40259,-29.3284 -0.4922,-43.9731 -0.18585,-30.9326 -0.0548,-61.794 0.38341,-92.5818 0.84263,-59.2034 46.49896,-104.1024 100.85182,-101.3507 z" />
            <path
               style="mix-blend-mode:normal;fill:url(#pattern42);fill-opacity:1;stroke:none;stroke-width:112.405;stroke-linecap:round;stroke-opacity:1"
               id="rect47"
               width="689.99902"
               height="321.30664"
               x="925"
               y="2459.0251"
               ry="98.159508"
               sodipodi:type="rect"
               d="m 972.73244,2453.1775 c 164.47676,8.3271 328.92906,14.5582 493.31916,18.6298 54.3242,1.3455 96.4314,42.7333 95.7672,93.15 -0.023,1.7411 -0.045,3.4823 -0.065,5.2235 -0.4388,36.8701 -0.3524,73.7711 0.2816,110.6856 0.8666,50.4574 -40.973,93.7101 -95.2458,96.6081 -164.2345,8.7699 -328.7302,15.177 -493.42652,19.2651 -54.4254,1.3509 -100.40319,-46.044 -101.37357,-105.6565 -0.23881,-14.6705 -0.40259,-29.3284 -0.4922,-43.9731 -0.18585,-30.9326 -0.0548,-61.794 0.38341,-92.5818 0.84263,-59.2034 46.49896,-104.1024 100.85182,-101.3507 z" />
          </g>
          <g
             id="g45"
             transform="matrix(0.10279451,1.5323304,-1.5323304,0.10279451,5780.3787,120.42436)">
            <path
               style="mix-blend-mode:normal;fill:#cccccc;fill-opacity:1;stroke:none;stroke-width:91.7783;stroke-linecap:round;stroke-opacity:1"
               id="rect44"
               width="766.66602"
               height="321.30664"
               x="925"
               y="2459.0251"
               ry="98.159508"
               sodipodi:type="rect"
               d="m 993.53168,2427.0499 c 189.61602,16.1275 378.85262,34.8674 567.66612,56.111 54.0079,6.0765 93.2842,51.7439 89.3123,101.8985 -3.043,38.4251 -5.5565,76.7495 -7.5155,114.9531 -2.5569,49.8655 -47.2478,87.5873 -101.5239,85.1818 -189.7513,-8.4096 -379.7785,-13.97 -570.0377,-16.5726 -54.42144,-0.7445 -97.03563,-48.7055 -94.04541,-107.7788 2.2909,-45.2579 5.21776,-90.4738 8.75554,-135.6274 4.61773,-58.9372 53.1511,-102.7787 107.38855,-98.1656 z" />
            <path
               style="mix-blend-mode:normal;fill:url(#pattern42);fill-opacity:1;stroke:none;stroke-width:112.405;stroke-linecap:round;stroke-opacity:1"
               id="rect45"
               width="766.66602"
               height="321.30664"
               x="925"
               y="2459.0251"
               ry="98.159508"
               sodipodi:type="rect"
               d="m 993.53168,2427.0499 c 189.61602,16.1275 378.85262,34.8674 567.66612,56.111 54.0079,6.0765 93.2842,51.7439 89.3123,101.8985 -3.043,38.4251 -5.5565,76.7495 -7.5155,114.9531 -2.5569,49.8655 -47.2478,87.5873 -101.5239,85.1818 -189.7513,-8.4096 -379.7785,-13.97 -570.0377,-16.5726 -54.42144,-0.7445 -97.03563,-48.7055 -94.04541,-107.7788 2.2909,-45.2579 5.21776,-90.4738 8.75554,-135.6274 4.61773,-58.9372 53.1511,-102.7787 107.38855,-98.1656 z" />
          </g>
        </g>
      </g>
    </g>
  </g>
</svg>
