<?xml version="1.0" encoding="UTF-8" standalone="no"?>
<!-- Created with Inkscape (http://www.inkscape.org/) -->

<svg
   width="300mm"
   height="200mm"
   viewBox="0 0 300 200"
   version="1.1"
   id="svg1"
   inkscape:version="1.4.2 (f4327f4, 2025-05-13)"
   sodipodi:docname="Flag_of_US.svg"
   xmlns:inkscape="http://www.inkscape.org/namespaces/inkscape"
   xmlns:sodipodi="http://sodipodi.sourceforge.net/DTD/sodipodi-0.dtd"
   xmlns="http://www.w3.org/2000/svg"
   xmlns:svg="http://www.w3.org/2000/svg">
  <sodipodi:namedview
     id="namedview1"
     pagecolor="#ffffff"
     bordercolor="#000000"
     borderopacity="0.25"
     inkscape:showpageshadow="2"
     inkscape:pageopacity="0.0"
     inkscape:pagecheckerboard="0"
     inkscape:deskcolor="#d1d1d1"
     inkscape:document-units="mm"
     showguides="false"
     inkscape:zoom="0.76167929"
     inkscape:cx="161.48529"
     inkscape:cy="452.2901"
     inkscape:window-width="1832"
     inkscape:window-height="1057"
     inkscape:window-x="80"
     inkscape:window-y="-8"
     inkscape:window-maximized="1"
     inkscape:current-layer="layer1" />
  <defs
     id="defs1" />
  <g
     inkscape:label="Layer 1"
     inkscape:groupmode="layer"
     id="layer1">
    <rect
       style="fill:#ffffff;stroke-width:1;stroke-linecap:round"
       id="rect6"
       width="300"
       height="200"
       x="3.5527137e-15"
       y="0" />
    <rect
       style="fill:#ff5555;stroke-width:1;stroke-linecap:round"
       id="rect1"
       width="300"
       height="28.570999"
       x="0"
       y="0" />
    <rect
       style="fill:#ff5555;stroke-width:1;stroke-linecap:round"
       id="rect1-8"
       width="300"
       height="28.570999"
       x="0"
       y="57.141998" />
    <rect
       style="fill:#ff5555;stroke-width:1;stroke-linecap:round"
       id="rect1-8-1"
       width="300"
       height="28.570999"
       x="0"
       y="114.284" />
    <rect
       style="fill:#ff5555;stroke-width:1;stroke-linecap:round"
       id="rect1-8-1-2"
       width="300"
       height="28.570999"
       x="0"
       y="171.42599" />
    <rect
       style="fill:#2ad4ff;stroke-width:1;stroke-linecap:round"
       id="rect2"
       width="150"
       height="114.284"
       x="0"
       y="0" />
    <path
       sodipodi:type="star"
       style="fill:#ffffff;stroke-width:1;stroke-linecap:round"
       id="path1"
       inkscape:flatsided="false"
       sodipodi:sides="5"
       sodipodi:cx="19.105263"
       sodipodi:cy="25.705263"
       sodipodi:r1="33.394379"
       sodipodi:r2="18.004095"
       sodipodi:arg1="-0.3283294"
       sodipodi:arg2="0.29998913"
       inkscape:rounded="0.21312244"
       inkscape:randomized="0"
       d="m 50.715793,14.936841 c 1.484361,4.357317 -13.05021,11.69118 -14.410503,16.088809 -1.360294,4.397629 6.494904,18.657192 2.809542,21.415388 C 35.42947,55.199234 23.963122,43.642325 19.360375,43.707551 14.757627,43.772777 3.6233663,55.649961 -0.13867358,52.997303 -3.9007135,50.344645 3.5472646,35.868219 2.0629038,31.510902 0.57854301,27.153585 -14.158007,20.234525 -12.797713,15.836896 -11.437419,11.439267 4.6320315,14.049254 8.3173937,11.291058 12.002756,8.5328615 14.029328,-7.620537 18.632076,-7.6857629 c 4.602747,-0.065226 7.086236,16.0242601 10.848276,18.6769189 3.76204,2.652658 19.75108,-0.411632 21.235441,3.945685 z"
       inkscape:transform-center-x="0.033747017"
       inkscape:transform-center-y="-1.3881122"
       transform="matrix(0.56507517,0,0,0.58949216,17.281718,18.530814)" />
    <path
       sodipodi:type="star"
       style="fill:#ffffff;stroke-width:1;stroke-linecap:round"
       id="path1-8"
       inkscape:flatsided="false"
       sodipodi:sides="5"
       sodipodi:cx="19.105263"
       sodipodi:cy="25.705263"
       sodipodi:r1="33.394379"
       sodipodi:r2="18.004095"
       sodipodi:arg1="-0.3283294"
       sodipodi:arg2="0.29998913"
       inkscape:rounded="0.21312244"
       inkscape:randomized="0"
       d="m 50.715793,14.936841 c 1.484361,4.357317 -13.05021,11.69118 -14.410503,16.088809 -1.360294,4.397629 6.494904,18.657192 2.809542,21.415388 C 35.42947,55.199234 23.963122,43.642325 19.360375,43.707551 14.757627,43.772777 3.6233663,55.649961 -0.13867358,52.997303 -3.9007135,50.344645 3.5472646,35.868219 2.0629038,31.510902 0.57854301,27.153585 -14.158007,20.234525 -12.797713,15.836896 -11.437419,11.439267 4.6320315,14.049254 8.3173937,11.291058 12.002756,8.5328615 14.029328,-7.620537 18.632076,-7.6857629 c 4.602747,-0.065226 7.086236,16.0242601 10.848276,18.6769189 3.76204,2.652658 19.75108,-0.411632 21.235441,3.945685 z"
       inkscape:transform-center-x="0.033747017"
       inkscape:transform-center-y="-1.3881122"
       transform="matrix(0.56507517,0,0,0.58949216,17.281718,66.814814)" />
    <path
       sodipodi:type="star"
       style="fill:#ffffff;stroke-width:1;stroke-linecap:round"
       id="path2"
       inkscape:flatsided="false"
       sodipodi:sides="5"
       sodipodi:cx="19.105263"
       sodipodi:cy="25.705263"
       sodipodi:r1="33.394379"
       sodipodi:r2="18.004095"
       sodipodi:arg1="-0.3283294"
       sodipodi:arg2="0.29998913"
       inkscape:rounded="0.21312244"
       inkscape:randomized="0"
       d="m 50.715793,14.936841 c 1.484361,4.357317 -13.05021,11.69118 -14.410503,16.088809 -1.360294,4.397629 6.494904,18.657192 2.809542,21.415388 C 35.42947,55.199234 23.963122,43.642325 19.360375,43.707551 14.757627,43.772777 3.6233663,55.649961 -0.13867358,52.997303 -3.9007135,50.344645 3.5472646,35.868219 2.0629038,31.510902 0.57854301,27.153585 -14.158007,20.234525 -12.797713,15.836896 -11.437419,11.439267 4.6320315,14.049254 8.3173937,11.291058 12.002756,8.5328615 14.029328,-7.620537 18.632076,-7.6857629 c 4.602747,-0.065226 7.086236,16.0242601 10.848276,18.6769189 3.76204,2.652658 19.75108,-0.411632 21.235441,3.945685 z"
       inkscape:transform-center-x="0.033747017"
       inkscape:transform-center-y="-1.3881122"
       transform="matrix(0.56507517,0,0,0.58949216,107.28172,18.530814)" />
    <path
       sodipodi:type="star"
       style="fill:#ffffff;stroke-width:1;stroke-linecap:round"
       id="path3"
       inkscape:flatsided="false"
       sodipodi:sides="5"
       sodipodi:cx="19.105263"
       sodipodi:cy="25.705263"
       sodipodi:r1="33.394379"
       sodipodi:r2="18.004095"
       sodipodi:arg1="-0.3283294"
       sodipodi:arg2="0.29998913"
       inkscape:rounded="0.21312244"
       inkscape:randomized="0"
       d="m 50.715793,14.936841 c 1.484361,4.357317 -13.05021,11.69118 -14.410503,16.088809 -1.360294,4.397629 6.494904,18.657192 2.809542,21.415388 C 35.42947,55.199234 23.963122,43.642325 19.360375,43.707551 14.757627,43.772777 3.6233663,55.649961 -0.13867358,52.997303 -3.9007135,50.344645 3.5472646,35.868219 2.0629038,31.510902 0.57854301,27.153585 -14.158007,20.234525 -12.797713,15.836896 -11.437419,11.439267 4.6320315,14.049254 8.3173937,11.291058 12.002756,8.5328615 14.029328,-7.620537 18.632076,-7.6857629 c 4.602747,-0.065226 7.086236,16.0242601 10.848276,18.6769189 3.76204,2.652658 19.75108,-0.411632 21.235441,3.945685 z"
       inkscape:transform-center-x="0.033747017"
       inkscape:transform-center-y="-1.3881122"
       transform="matrix(0.56507517,0,0,0.58949216,107.28172,66.814814)" />
    <path
       sodipodi:type="star"
       style="fill:#ffffff;stroke-width:1;stroke-linecap:round"
       id="path4"
       inkscape:flatsided="false"
       sodipodi:sides="5"
       sodipodi:cx="19.105263"
       sodipodi:cy="25.705263"
       sodipodi:r1="33.394379"
       sodipodi:r2="18.004095"
       sodipodi:arg1="-0.3283294"
       sodipodi:arg2="0.29998913"
       inkscape:rounded="0.21312244"
       inkscape:randomized="0"
       d="m 50.715793,14.936841 c 1.484361,4.357317 -13.05021,11.69118 -14.410503,16.088809 -1.360294,4.397629 6.494904,18.657192 2.809542,21.415388 C 35.42947,55.199234 23.963122,43.642325 19.360375,43.707551 14.757627,43.772777 3.6233663,55.649961 -0.13867358,52.997303 -3.9007135,50.344645 3.5472646,35.868219 2.0629038,31.510902 0.57854301,27.153585 -14.158007,20.234525 -12.797713,15.836896 -11.437419,11.439267 4.6320315,14.049254 8.3173937,11.291058 12.002756,8.5328615 14.029328,-7.620537 18.632076,-7.6857629 c 4.602747,-0.065226 7.086236,16.0242601 10.848276,18.6769189 3.76204,2.652658 19.75108,-0.411632 21.235441,3.945685 z"
       inkscape:transform-center-x="0.033747017"
       inkscape:transform-center-y="-1.3881122"
       transform="matrix(0.56507517,0,0,0.58949216,62.281718,18.530814)" />
    <path
       sodipodi:type="star"
       style="fill:#ffffff;stroke-width:1;stroke-linecap:round"
       id="path5"
       inkscape:flatsided="false"
       sodipodi:sides="5"
       sodipodi:cx="19.105263"
       sodipodi:cy="25.705263"
       sodipodi:r1="33.394379"
       sodipodi:r2="18.004095"
       sodipodi:arg1="-0.3283294"
       sodipodi:arg2="0.29998913"
       inkscape:rounded="0.21312244"
       inkscape:randomized="0"
       d="m 50.715793,14.936841 c 1.484361,4.357317 -13.05021,11.69118 -14.410503,16.088809 -1.360294,4.397629 6.494904,18.657192 2.809542,21.415388 C 35.42947,55.199234 23.963122,43.642325 19.360375,43.707551 14.757627,43.772777 3.6233663,55.649961 -0.13867358,52.997303 -3.9007135,50.344645 3.5472646,35.868219 2.0629038,31.510902 0.57854301,27.153585 -14.158007,20.234525 -12.797713,15.836896 -11.437419,11.439267 4.6320315,14.049254 8.3173937,11.291058 12.002756,8.5328615 14.029328,-7.620537 18.632076,-7.6857629 c 4.602747,-0.065226 7.086236,16.0242601 10.848276,18.6769189 3.76204,2.652658 19.75108,-0.411632 21.235441,3.945685 z"
       inkscape:transform-center-x="0.033747017"
       inkscape:transform-center-y="-1.3881122"
       transform="matrix(0.56507517,0,0,0.58949216,62.281718,66.814814)" />
  </g>
</svg>
